<svg width="145" height="41" viewBox="0 0 145 41" fill="none" xmlns="http://www.w3.org/2000/svg">
<path fill-rule="evenodd" clip-rule="evenodd" d="M18.7535 39.2118C29.1107 39.2118 37.5069 30.8155 37.5069 20.4583C37.5069 10.1011 29.1107 1.70483 18.7535 1.70483C8.39619 1.70483 0 10.1011 0 20.4583C0 30.8155 8.39619 39.2118 18.7535 39.2118ZM24.6039 10.441C24.8887 9.42944 23.907 8.83128 23.0105 9.46999L10.4955 18.3856C9.52321 19.0783 9.67614 20.4583 10.7252 20.4583H14.0208V20.4328H20.4436L15.2102 22.2793L12.903 30.4756C12.6183 31.4872 13.5998 32.0853 14.4964 31.4466L27.0115 22.531C27.9837 21.8383 27.8307 20.4583 26.7817 20.4583H21.7841L24.6039 10.441Z" fill="#155EEF"/>
<path d="M47.207 28.9052V25.9388H49.5597V13.9707H47.207V11.0042H56.4133C57.5044 11.0042 58.4506 11.1917 59.2519 11.5668C60.0702 11.9248 60.701 12.4448 61.1443 13.1268C61.6046 13.7916 61.8347 14.5929 61.8347 15.5306V15.7863C61.8347 16.6047 61.6813 17.2781 61.3744 17.8066C61.0675 18.3181 60.701 18.7187 60.2748 19.0085C59.8656 19.2813 59.4735 19.4774 59.0984 19.5967V20.057C59.4735 20.1593 59.8827 20.3554 60.3259 20.6452C60.7692 20.918 61.1443 21.3186 61.4511 21.8471C61.7751 22.3756 61.937 23.0661 61.937 23.9185V24.1742C61.937 25.1631 61.7069 26.0155 61.2466 26.7315C60.7862 27.4305 60.1469 27.9676 59.3286 28.3426C58.5273 28.7177 57.5896 28.9052 56.5156 28.9052H47.207ZM52.9354 25.8365H56.1064C56.8395 25.8365 57.4277 25.6575 57.8709 25.2995C58.3312 24.9414 58.5614 24.43 58.5614 23.7651V23.5094C58.5614 22.8445 58.3398 22.333 57.8965 21.975C57.4532 21.617 56.8565 21.4379 56.1064 21.4379H52.9354V25.8365ZM52.9354 18.3692H56.0553C56.7542 18.3692 57.3254 18.1902 57.7686 17.8322C58.229 17.4741 58.4591 16.9797 58.4591 16.3489V16.0932C58.4591 15.4454 58.2375 14.951 57.7942 14.61C57.3509 14.252 56.7713 14.0729 56.0553 14.0729H52.9354V18.3692Z" fill="#101828"/>
<path d="M69.5593 29.2633C68.2977 29.2633 67.164 29.0075 66.1582 28.4961C65.1523 27.9846 64.3595 27.243 63.7799 26.2712C63.2002 25.2995 62.9104 24.1316 62.9104 22.7677V22.3586C62.9104 20.9947 63.2002 19.8269 63.7799 18.8551C64.3595 17.8833 65.1523 17.1417 66.1582 16.6302C67.164 16.1188 68.2977 15.8631 69.5593 15.8631C70.8209 15.8631 71.9547 16.1188 72.9605 16.6302C73.9664 17.1417 74.7592 17.8833 75.3388 18.8551C75.9185 19.8269 76.2083 20.9947 76.2083 22.3586V22.7677C76.2083 24.1316 75.9185 25.2995 75.3388 26.2712C74.7592 27.243 73.9664 27.9846 72.9605 28.4961C71.9547 29.0075 70.8209 29.2633 69.5593 29.2633ZM69.5593 26.3991C70.5482 26.3991 71.3665 26.0837 72.0143 25.4529C72.6622 24.805 72.9861 23.8844 72.9861 22.691V22.4353C72.9861 21.2419 72.6622 20.3298 72.0143 19.699C71.3835 19.0511 70.5652 18.7272 69.5593 18.7272C68.5705 18.7272 67.7522 19.0511 67.1043 19.699C66.4565 20.3298 66.1326 21.2419 66.1326 22.4353V22.691C66.1326 23.8844 66.4565 24.805 67.1043 25.4529C67.7522 26.0837 68.5705 26.3991 69.5593 26.3991Z" fill="#101828"/>
<path d="M77.9039 28.9052V11.0042H81.1261V28.9052H77.9039Z" fill="#101828"/>
<path d="M88.2769 28.9052C87.4415 28.9052 86.7596 28.6495 86.2311 28.138C85.7196 27.6095 85.4639 26.9105 85.4639 26.0411V18.8807H82.2929V16.2211H85.4639V12.2828H88.6861V16.2211H92.164V18.8807H88.6861V25.4785C88.6861 25.9899 88.9248 26.2457 89.4021 26.2457H91.8571V28.9052H88.2769Z" fill="#101828"/>
<path d="M99.0701 29.2633C97.4164 29.2633 96.061 28.9052 95.004 28.1892C93.947 27.4732 93.3076 26.4502 93.086 25.1204L96.0525 24.3533C96.1718 24.95 96.3679 25.4188 96.6407 25.7598C96.9305 26.1007 97.28 26.3479 97.6891 26.5014C98.1154 26.6378 98.5757 26.706 99.0701 26.706C99.8202 26.706 100.374 26.5781 100.732 26.3224C101.09 26.0496 101.269 25.7171 101.269 25.325C101.269 24.9329 101.099 24.6346 100.758 24.43C100.417 24.2083 99.8714 24.0293 99.1212 23.8929L98.4052 23.7651C97.5187 23.5946 96.7088 23.3644 95.9758 23.0746C95.2427 22.7677 94.6545 22.35 94.2112 21.8215C93.768 21.293 93.5463 20.6111 93.5463 19.7757C93.5463 18.5141 94.0066 17.5509 94.9273 16.886C95.8479 16.204 97.0583 15.8631 98.5586 15.8631C99.9737 15.8631 101.15 16.1785 102.088 16.8092C103.025 17.44 103.639 18.2669 103.929 19.2898L100.937 20.2104C100.801 19.5626 100.519 19.1023 100.093 18.8295C99.6838 18.5567 99.1724 18.4203 98.5586 18.4203C97.9449 18.4203 97.476 18.5312 97.1521 18.7528C96.8282 18.9574 96.6662 19.2472 96.6662 19.6223C96.6662 20.0314 96.8367 20.3383 97.1777 20.5429C97.5187 20.7304 97.979 20.8753 98.5586 20.9776L99.2747 21.1055C100.229 21.276 101.09 21.5061 101.858 21.796C102.642 22.0687 103.256 22.4694 103.699 22.9979C104.159 23.5094 104.389 24.2083 104.389 25.0949C104.389 26.4247 103.903 27.4561 102.932 28.1892C101.977 28.9052 100.69 29.2633 99.0701 29.2633Z" fill="#101828"/>
<path d="M105.934 28.9052V11.0042H109.156V17.781H109.617C109.753 17.5082 109.966 17.2355 110.256 16.9627C110.546 16.6899 110.929 16.4683 111.407 16.2978C111.901 16.1103 112.523 16.0165 113.274 16.0165C114.262 16.0165 115.123 16.2466 115.856 16.707C116.607 17.1502 117.186 17.7725 117.595 18.5738C118.005 19.358 118.209 20.2786 118.209 21.3357V28.9052H114.987V21.5914C114.987 20.6367 114.748 19.9206 114.271 19.4433C113.811 18.9659 113.146 18.7272 112.276 18.7272C111.287 18.7272 110.52 19.0597 109.975 19.7246C109.429 20.3724 109.156 21.2845 109.156 22.4609V28.9052H105.934Z" fill="#101828"/>
<path d="M120.414 28.9052V16.2211H123.636V28.9052H120.414ZM122.025 14.7378C121.445 14.7378 120.951 14.5503 120.542 14.1752C120.15 13.8002 119.954 13.3058 119.954 12.692C119.954 12.0783 120.15 11.5839 120.542 11.2088C120.951 10.8337 121.445 10.6462 122.025 10.6462C122.622 10.6462 123.116 10.8337 123.508 11.2088C123.9 11.5839 124.096 12.0783 124.096 12.692C124.096 13.3058 123.9 13.8002 123.508 14.1752C123.116 14.5503 122.622 14.7378 122.025 14.7378Z" fill="#101828"/>
<path d="M128.025 28.9052V18.8807H124.803V16.2211H128.025V13.8684C128.025 12.9989 128.281 12.3084 128.792 11.797C129.321 11.2685 130.003 11.0042 130.838 11.0042H134.162V13.6638H131.963C131.486 13.6638 131.247 13.9195 131.247 14.431V16.2211H134.572V18.8807H131.247V28.9052H128.025Z" fill="#101828"/>
<path d="M140.397 28.9052C139.561 28.9052 138.879 28.6495 138.351 28.138C137.839 27.6095 137.584 26.9105 137.584 26.0411V18.8807H134.413V16.2211H137.584V12.2828H140.806V16.2211H144.284V18.8807H140.806V25.4785C140.806 25.9899 141.045 26.2457 141.522 26.2457H143.977V28.9052H140.397Z" fill="#101828"/>
</svg>
