<svg width="40" height="40" viewBox="0 0 40 40" fill="none" xmlns="http://www.w3.org/2000/svg">
<path d="M15.8167 35.0336C13.4801 35.0336 12.6764 33.1214 12.6764 30.7848V24.5659C12.6764 22.2293 14.5874 20.317 16.924 20.317H23.0755C25.4121 20.317 27.3244 22.2293 27.3244 24.5659V30.7848C27.3244 33.1214 26.5201 35.0336 24.1829 35.0336M24.2203 25.8517V39.8911M15.7792 25.8517V39.8911M4.91248 35.0336C2.57586 35.0336 1.77222 33.1214 1.77222 30.7848V24.5659C1.77222 22.2293 3.68318 20.317 6.01979 20.317H10.5863M4.87499 25.8517V39.8911M35.0883 35.0336C37.4237 35.0336 38.2273 33.1214 38.2273 30.7848V24.5659C38.2273 22.2293 36.3163 20.317 33.9797 20.317H29.4132M35.1245 25.8517V39.8911M23.1981 13.8624C23.1981 15.629 21.766 17.0611 19.9994 17.0611C18.2328 17.0611 16.8007 15.629 16.8007 13.8624C16.8007 12.0958 18.2328 10.6637 19.9994 10.6637C21.766 10.6637 23.1981 12.0958 23.1981 13.8624ZM12.294 13.8624C12.294 15.629 10.8618 17.0611 9.09525 17.0611C7.32866 17.0611 5.89655 15.629 5.89655 13.8624C5.89655 12.0958 7.32866 10.6637 9.09525 10.6637C10.8618 10.6637 12.294 12.0958 12.294 13.8624ZM34.1042 13.8624C34.1042 15.6294 32.6718 17.0618 30.9049 17.0618C29.138 17.0618 27.7056 15.6294 27.7056 13.8624C27.7056 12.0955 29.138 10.6631 30.9049 10.6631C32.6718 10.6631 34.1042 12.0955 34.1042 13.8624ZM28.6509 5.3082C28.6509 7.0748 27.2188 8.50691 25.4522 8.50691C23.6856 8.50691 22.2535 7.0748 22.2535 5.3082C22.2535 3.54161 23.6856 2.1095 25.4522 2.1095C27.2188 2.1095 28.6509 3.54161 28.6509 5.3082ZM17.7473 5.3082C17.7473 7.0748 16.3152 8.50691 14.5486 8.50691C12.782 8.50691 11.3499 7.0748 11.3499 5.3082C11.3499 3.54161 12.782 2.1095 14.5486 2.1095C16.3152 2.1095 17.7473 3.54161 17.7473 5.3082Z" stroke="#9880FF" stroke-width="2.5" stroke-miterlimit="10"/>
</svg>
