<svg width="169" height="41" viewBox="0 0 169 41" fill="none" xmlns="http://www.w3.org/2000/svg">
<path d="M26.8116 1.70483H12.4415L0.873047 13.2732V27.6433L12.4415 39.2118H26.8116L38.38 27.6433V13.2732L26.8116 1.70483ZM14.4298 27.8241L7.01878 20.4131L14.4298 13.0021C17.2315 10.2004 21.8408 10.2004 24.6425 13.0021L32.0535 20.4131L24.6425 27.8241C21.8408 30.6258 17.3219 30.6258 14.4298 27.8241Z" fill="#444CE7"/>
<path d="M54.8654 29.1872C57.167 29.1872 59.0594 28.0108 59.6476 26.2463V28.9826H63.0488V22.0779C63.0488 20.518 61.8213 19.1882 60.159 19.1882H55.3002V22.0779H58.7525C59.1873 22.0779 59.4686 22.3592 59.4686 22.794C59.4686 24.4562 57.2693 26.0673 55.0444 26.0673C52.078 26.0673 49.7253 23.7402 49.7253 20.0321C49.7253 16.324 52.078 14.1759 55.1212 14.1759C57.4227 14.1759 59.0082 15.429 59.2896 17.3469H63.0999C62.8698 13.511 59.6476 10.877 55.1467 10.877C50.4158 10.877 46.0684 13.9202 46.0684 20.0321C46.0684 26.144 50.2879 29.1872 54.8654 29.1872Z" fill="#101828"/>
<path d="M64.5088 28.9826H68.0635V10.4934H64.5088V28.9826Z" fill="#101828"/>
<path d="M75.7311 29.1872C79.6949 29.1872 82.5335 26.3742 82.5335 22.5382C82.5335 18.7023 79.6949 15.8893 75.7311 15.8893C71.7673 15.8893 68.9287 18.7023 68.9287 22.5382C68.9287 26.3742 71.7673 29.1872 75.7311 29.1872ZM75.7311 26.1185C73.8132 26.1185 72.5089 24.6608 72.5089 22.5382C72.5089 20.3901 73.8132 18.9325 75.7311 18.9325C77.6491 18.9325 78.9533 20.3901 78.9533 22.5382C78.9533 24.6608 77.6491 26.1185 75.7311 26.1185Z" fill="#101828"/>
<path d="M90.4875 29.1872C94.2979 29.1872 96.5738 26.5532 96.5738 22.5382C96.5738 18.5233 94.2979 15.8893 90.5386 15.8893C88.9275 15.8893 87.6745 16.503 86.9584 17.4492V10.4934H83.4038V28.9826H86.9584V27.5761C87.6745 28.5735 89.0043 29.1872 90.4875 29.1872ZM89.9249 26.1185C88.0069 26.1185 86.7538 24.6864 86.7538 22.5382C86.7538 20.3646 88.0069 18.9325 89.9249 18.9325C91.7917 18.9325 93.0704 20.3646 93.0704 22.5382C93.0704 24.6864 91.7917 26.1185 89.9249 26.1185Z" fill="#101828"/>
<path d="M102.524 15.8893C98.9951 15.8893 96.8981 17.9607 96.7447 20.5436H99.9157C99.9668 19.4695 100.76 18.4977 102.32 18.4977C103.777 18.4977 104.621 19.2393 104.621 20.3134C104.621 20.8504 104.289 21.2596 103.649 21.2596H101.476C98.6626 21.2596 96.7702 22.794 96.7702 25.3257C96.7702 27.525 98.4836 29.1872 100.99 29.1872C102.754 29.1872 104.186 28.3944 104.621 27.1925V28.9826H108.15V20.697C108.15 17.7817 105.772 15.8893 102.524 15.8893ZM101.885 26.6043C100.887 26.6043 100.171 26.0162 100.171 25.1723C100.171 24.1749 100.939 23.51 102.013 23.51H104.621V23.689C104.621 25.3257 103.624 26.6043 101.885 26.6043Z" fill="#101828"/>
<path d="M109.516 28.9826H113.071V10.4934H109.516V28.9826Z" fill="#101828"/>
<path d="M114.959 28.9826H122.273C126.058 28.9826 128.666 27.0391 128.666 23.6379C128.666 21.2852 127.285 19.8531 125.648 19.2138C126.697 18.6512 127.745 17.3725 127.745 15.6847C127.745 12.6927 125.316 11.0816 122.068 11.0816H114.959V28.9826ZM118.744 17.9096V14.1248H121.71C123.424 14.1248 124.191 14.8152 124.191 16.0172C124.191 17.2191 123.424 17.9096 121.787 17.9096H118.744ZM118.744 25.6581V21.1573H121.94C124.063 21.1573 125.009 21.9756 125.009 23.4333C125.009 24.891 124.063 25.6581 121.94 25.6581H118.744Z" fill="#101828"/>
<path d="M134.85 15.8893C131.321 15.8893 129.224 17.9607 129.07 20.5436H132.241C132.293 19.4695 133.085 18.4977 134.645 18.4977C136.103 18.4977 136.947 19.2393 136.947 20.3134C136.947 20.8504 136.614 21.2596 135.975 21.2596H133.801C130.988 21.2596 129.096 22.794 129.096 25.3257C129.096 27.525 130.809 29.1872 133.316 29.1872C135.08 29.1872 136.512 28.3944 136.947 27.1925V28.9826H140.476V20.697C140.476 17.7817 138.098 15.8893 134.85 15.8893ZM134.211 26.6043C133.213 26.6043 132.497 26.0162 132.497 25.1723C132.497 24.1749 133.264 23.51 134.338 23.51H136.947V23.689C136.947 25.3257 135.95 26.6043 134.211 26.6043Z" fill="#101828"/>
<path d="M141.637 28.9826H145.218V21.9245C145.218 20.2623 146.317 19.0603 147.877 19.0603C149.36 19.0603 150.358 20.1855 150.358 21.7455V28.9826H153.938V20.9527C153.938 17.9863 152.045 15.8893 149.13 15.8893C147.366 15.8893 145.934 16.6309 145.218 17.884V16.0939H141.637V28.9826Z" fill="#101828"/>
<path d="M164.142 28.9826H168.438L162.889 21.1573L168.029 16.0939H163.528L159.053 20.4924V10.4934H155.472V28.9826H159.053V24.9421L160.485 23.5356L164.142 28.9826Z" fill="#101828"/>
</svg>
