<svg width="144" height="41" viewBox="0 0 144 41" fill="none" xmlns="http://www.w3.org/2000/svg">
<path fill-rule="evenodd" clip-rule="evenodd" d="M17.8419 2.93909C17.4114 2.85055 16.9673 2.85055 16.5368 2.93909C16.0392 3.04144 15.5944 3.29057 15.2408 3.48863L15.1444 3.54248L3.15964 10.2007C3.12651 10.2191 3.09236 10.2379 3.05738 10.2571C2.68305 10.4633 2.21238 10.7226 1.85094 11.1148C1.53844 11.4539 1.30195 11.8558 1.15729 12.2937C0.989959 12.8001 0.991917 13.3374 0.993474 13.7648C0.993619 13.8047 0.993761 13.8437 0.993761 13.8816V27.0277C0.993761 27.0656 0.993619 27.1046 0.993474 27.1445C0.991917 27.5719 0.989959 28.1092 1.15729 28.6157C1.30195 29.0535 1.53844 29.4554 1.85094 29.7945C2.21238 30.1868 2.68305 30.446 3.05738 30.6522C3.09237 30.6715 3.12651 30.6903 3.15964 30.7087L15.1444 37.3668L15.2408 37.4207C15.5944 37.6188 16.0392 37.8679 16.5368 37.9702C16.9673 38.0588 17.4114 38.0588 17.8419 37.9702C18.3395 37.8679 18.7843 37.6188 19.1379 37.4207L19.2343 37.3668L31.219 30.7087C31.2337 30.7005 31.2485 30.6923 31.2635 30.684C31.2825 30.6735 31.3018 30.6629 31.3213 30.6522C31.6956 30.446 32.1663 30.1868 32.5277 29.7945C32.8402 29.4554 33.0767 29.0535 33.2214 28.6157C33.3887 28.1092 33.3868 27.5719 33.3852 27.1445C33.3851 27.1046 33.3849 27.0656 33.3849 27.0277V13.8816C33.3849 13.8437 33.3851 13.8047 33.3852 13.7648C33.3868 13.3374 33.3887 12.8001 33.2214 12.2936C33.0767 11.8558 32.8402 11.4539 32.5277 11.1148C32.1663 10.7226 31.6956 10.4633 31.3213 10.2571L31.32 10.2564C31.2854 10.2374 31.2517 10.2188 31.219 10.2007L19.2343 3.54248L19.1379 3.48863C18.7843 3.29057 18.3395 3.04144 17.8419 2.93909ZM16.7174 6.37397C16.9629 6.23762 17.0881 6.16873 17.1816 6.12365L17.1893 6.11994L17.1971 6.12365C17.2905 6.16873 17.4158 6.23762 17.6613 6.37397L28.4304 12.3568L17.1893 18.6019L5.94821 12.3569L16.7174 6.37397ZM4.23288 15.1093L15.5697 21.4076L15.5698 33.8978L4.7327 27.8772C4.47364 27.7333 4.34138 27.659 4.24859 27.5999L4.24075 27.5949L4.24017 27.5856C4.23355 27.4757 4.23288 27.3241 4.23288 27.0277V15.1093Z" fill="#101828"/>
<path d="M48.1251 25.8672H53.2806V28.9052H44.1895V12.7483H48.1251V25.8672Z" fill="#101828"/>
<path d="M56.907 14.7276C56.2165 14.7276 55.6488 14.5281 55.2039 14.1292C54.7742 13.7149 54.5594 13.2086 54.5594 12.6102C54.5594 11.9964 54.7742 11.4901 55.2039 11.0911C55.6488 10.6769 56.2165 10.4697 56.907 10.4697C57.5821 10.4697 58.1345 10.6769 58.5641 11.0911C59.0091 11.4901 59.2316 11.9964 59.2316 12.6102C59.2316 13.2086 59.0091 13.7149 58.5641 14.1292C58.1345 14.5281 57.5821 14.7276 56.907 14.7276ZM58.8633 16.0625V28.9052H54.9277V16.0625H58.8633Z" fill="#101828"/>
<path d="M66.3646 15.8784C67.2699 15.8784 68.0601 16.0625 68.7352 16.4308C69.4257 16.799 69.9551 17.2823 70.3233 17.8808V16.0625H74.259V28.8822C74.259 30.0637 74.0212 31.1301 73.5455 32.0814C73.0852 33.048 72.3717 33.8152 71.4051 34.3829C70.4537 34.9507 69.2646 35.2345 67.8376 35.2345C65.935 35.2345 64.393 34.7819 63.2115 33.8766C62.03 32.9867 61.3549 31.7745 61.1861 30.2401H65.0758C65.1985 30.7311 65.49 31.1147 65.9504 31.3909C66.4107 31.6825 66.9784 31.8282 67.6535 31.8282C68.4667 31.8282 69.1112 31.5904 69.5868 31.1147C70.0778 30.6544 70.3233 29.9102 70.3233 28.8822V27.064C69.9397 27.6624 69.4104 28.1534 68.7352 28.537C68.0601 28.9052 67.2699 29.0894 66.3646 29.0894C65.3059 29.0894 64.3469 28.8208 63.4877 28.2838C62.6284 27.7314 61.9456 26.9566 61.4393 25.9592C60.9483 24.9465 60.7028 23.7804 60.7028 22.4609C60.7028 21.1413 60.9483 19.9828 61.4393 18.9855C61.9456 17.9882 62.6284 17.221 63.4877 16.6839C64.3469 16.1469 65.3059 15.8784 66.3646 15.8784ZM70.3233 22.4839C70.3233 21.5019 70.0471 20.727 69.4948 20.1593C68.9577 19.5916 68.2979 19.3077 67.5154 19.3077C66.7329 19.3077 66.0654 19.5916 65.5131 20.1593C64.976 20.7117 64.7075 21.4789 64.7075 22.4609C64.7075 23.4429 64.976 24.2254 65.5131 24.8085C66.0654 25.3762 66.7329 25.66 67.5154 25.66C68.2979 25.66 68.9577 25.3762 69.4948 24.8085C70.0471 24.2407 70.3233 23.4659 70.3233 22.4839Z" fill="#101828"/>
<path d="M84.7705 15.9244C86.2435 15.9244 87.4249 16.4154 88.3149 17.3974C89.2048 18.3641 89.6498 19.699 89.6498 21.4021V28.9052H85.7371V21.9315C85.7371 21.0723 85.5146 20.4048 85.0697 19.9291C84.6247 19.4535 84.0263 19.2157 83.2745 19.2157C82.5226 19.2157 81.9242 19.4535 81.4792 19.9291C81.0343 20.4048 80.8118 21.0723 80.8118 21.9315V28.9052H76.8761V11.8737H80.8118V17.7887C81.2107 17.221 81.7554 16.7683 82.4459 16.4308C83.1364 16.0932 83.9112 15.9244 84.7705 15.9244Z" fill="#101828"/>
<path d="M99.3124 25.568V28.9052H97.31C95.8831 28.9052 94.7706 28.56 93.9728 27.8695C93.1749 27.1637 92.7759 26.0206 92.7759 24.4402V19.3307H91.2109V16.0625H92.7759V12.9324H96.7116V16.0625H99.2894V19.3307H96.7116V24.4862C96.7116 24.8698 96.8037 25.146 96.9878 25.3148C97.1719 25.4836 97.4788 25.568 97.9084 25.568H99.3124Z" fill="#101828"/>
<path d="M105.21 17.8808C105.578 17.2823 106.108 16.799 106.798 16.4308C107.489 16.0625 108.279 15.8784 109.169 15.8784C110.228 15.8784 111.187 16.1469 112.046 16.6839C112.905 17.221 113.58 17.9882 114.071 18.9855C114.577 19.9828 114.831 21.1413 114.831 22.4609C114.831 23.7804 114.577 24.9465 114.071 25.9592C113.58 26.9566 112.905 27.7314 112.046 28.2838C111.187 28.8208 110.228 29.0894 109.169 29.0894C108.264 29.0894 107.473 28.9129 106.798 28.56C106.123 28.1917 105.594 27.7084 105.21 27.11V28.9052H101.274V11.8737H105.21V17.8808ZM110.826 22.4609C110.826 21.4789 110.55 20.7117 109.997 20.1593C109.46 19.5916 108.793 19.3077 107.995 19.3077C107.212 19.3077 106.545 19.5916 105.993 20.1593C105.456 20.727 105.187 21.5019 105.187 22.4839C105.187 23.4659 105.456 24.2407 105.993 24.8085C106.545 25.3762 107.212 25.66 107.995 25.66C108.778 25.66 109.445 25.3762 109.997 24.8085C110.55 24.2254 110.826 23.4429 110.826 22.4609Z" fill="#101828"/>
<path d="M122.511 29.0894C121.253 29.0894 120.118 28.8208 119.105 28.2838C118.108 27.7468 117.317 26.9796 116.734 25.9822C116.167 24.9849 115.883 23.8188 115.883 22.4839C115.883 21.1643 116.174 20.0059 116.757 19.0085C117.34 17.9958 118.138 17.221 119.151 16.6839C120.164 16.1469 121.299 15.8784 122.557 15.8784C123.815 15.8784 124.951 16.1469 125.964 16.6839C126.976 17.221 127.774 17.9958 128.357 19.0085C128.94 20.0059 129.232 21.1643 129.232 22.4839C129.232 23.8034 128.933 24.9696 128.334 25.9822C127.751 26.9796 126.946 27.7468 125.918 28.2838C124.905 28.8208 123.769 29.0894 122.511 29.0894ZM122.511 25.683C123.263 25.683 123.9 25.4069 124.422 24.8545C124.959 24.3021 125.227 23.5119 125.227 22.4839C125.227 21.4558 124.966 20.6656 124.445 20.1133C123.938 19.5609 123.309 19.2847 122.557 19.2847C121.79 19.2847 121.153 19.5609 120.647 20.1133C120.141 20.6503 119.887 21.4405 119.887 22.4839C119.887 23.5119 120.133 24.3021 120.624 24.8545C121.13 25.4069 121.759 25.683 122.511 25.683Z" fill="#101828"/>
<path d="M138.685 28.9052L136.222 25.3378L134.151 28.9052H129.893L134.128 22.3458L129.778 16.0625H134.197L136.659 19.6069L138.731 16.0625H142.989L138.685 22.5299L143.104 28.9052H138.685Z" fill="#101828"/>
</svg>
