<svg width="100" height="22" viewBox="0 0 100 22" fill="none" xmlns="http://www.w3.org/2000/svg">
<path d="M0 21.589V1.86301H3.2231V11.0137L10.9131 1.86301H14.8717L6.59332 11.5342L15.4335 21.589H11.341L3.2231 12.3836V21.589H0Z" fill="white"/>
<path d="M23.7376 22C22.204 22 20.8533 21.6804 19.6853 21.0411C18.5262 20.4018 17.6168 19.5023 16.957 18.3425C16.3062 17.1826 15.9807 15.8219 15.9807 14.2603V1.89041L19.244 1.86301V14.1781C19.244 14.9178 19.3643 15.5799 19.6051 16.1644C19.8547 16.7489 20.189 17.2466 20.6081 17.6575C21.0271 18.0594 21.5086 18.3653 22.0525 18.5753C22.5963 18.7854 23.158 18.8904 23.7376 18.8904C24.3349 18.8904 24.9011 18.7854 25.4361 18.5753C25.9799 18.3562 26.4614 18.0457 26.8804 17.6438C27.2995 17.2329 27.6294 16.7352 27.8701 16.1507C28.1108 15.5662 28.2312 14.9087 28.2312 14.1781V1.86301H31.4944V14.2603C31.4944 15.8219 31.1645 17.1826 30.5048 18.3425C29.8539 19.5023 28.9445 20.4018 27.7765 21.0411C26.6174 21.6804 25.2711 22 23.7376 22Z" fill="white"/>
<path d="M33.8944 21.589V1.86301H40.033C40.1935 1.86301 40.51 1.86758 40.9826 1.87671C41.464 1.88584 41.9277 1.91781 42.3734 1.9726C43.8981 2.17352 45.1864 2.73059 46.2385 3.64384C47.2995 4.54794 48.1019 5.7032 48.6458 7.10959C49.1897 8.51598 49.4616 10.0548 49.4616 11.726C49.4616 13.3973 49.1897 14.9361 48.6458 16.3425C48.1019 17.7489 47.2995 18.9087 46.2385 19.8219C45.1864 20.726 43.8981 21.2785 42.3734 21.4794C41.9366 21.5342 41.4774 21.5662 40.9959 21.5753C40.5145 21.5845 40.1935 21.589 40.033 21.589H33.8944ZM37.171 18.4795H40.033C40.3005 18.4795 40.6393 18.4703 41.0494 18.4521C41.4685 18.4338 41.8385 18.3927 42.1595 18.3288C43.0689 18.1552 43.8089 17.7397 44.3795 17.0822C44.9501 16.4247 45.3692 15.6256 45.6367 14.6849C45.9131 13.7443 46.0513 12.758 46.0513 11.726C46.0513 10.6575 45.9131 9.65297 45.6367 8.71233C45.3603 7.77169 44.9323 6.98173 44.3528 6.34247C43.7822 5.7032 43.0511 5.2968 42.1595 5.12329C41.8385 5.05023 41.4685 5.00913 41.0494 5C40.6393 4.98173 40.3005 4.9726 40.033 4.9726H37.171V18.4795Z" fill="white"/>
<path d="M59.4304 22C57.5045 22 55.8551 21.5708 54.482 20.7123C53.109 19.8447 52.0524 18.6393 51.3124 17.0959C50.5813 15.5525 50.2158 13.7626 50.2158 11.726C50.2158 9.6895 50.5813 7.89954 51.3124 6.35616C52.0524 4.81279 53.109 3.61187 54.482 2.75342C55.8551 1.88585 57.5045 1.45206 59.4304 1.45206C61.3562 1.45206 63.0056 1.88585 64.3787 2.75342C65.7607 3.61187 66.8172 4.81279 67.5483 6.35616C68.2883 7.89954 68.6583 9.6895 68.6583 11.726C68.6583 13.7626 68.2883 15.5525 67.5483 17.0959C66.8172 18.6393 65.7607 19.8447 64.3787 20.7123C63.0056 21.5708 61.3562 22 59.4304 22ZM59.4304 18.8904C60.7232 18.8995 61.7975 18.6073 62.6535 18.0137C63.5183 17.4201 64.1647 16.5845 64.5927 15.5068C65.0296 14.4292 65.248 13.1689 65.248 11.726C65.248 10.2831 65.0296 9.03196 64.5927 7.9726C64.1647 6.90411 63.5183 6.07306 62.6535 5.47945C61.7975 4.88585 60.7232 4.57991 59.4304 4.56164C58.1376 4.55251 57.0632 4.84475 56.2073 5.43836C55.3513 6.03196 54.7049 6.86758 54.268 7.9452C53.8401 9.02283 53.6261 10.2831 53.6261 11.726C53.6261 13.1689 53.8401 14.4247 54.268 15.4931C54.696 16.5525 55.338 17.379 56.1939 17.9726C57.0587 18.5662 58.1376 18.8721 59.4304 18.8904Z" fill="white"/>
<path d="M77.1113 22C75.7025 22 74.432 21.7489 73.2997 21.2466C72.1763 20.7443 71.249 20.0274 70.5179 19.0959C69.7957 18.1552 69.3366 17.0411 69.1404 15.7534L72.4839 15.2329C72.7692 16.4018 73.3532 17.3059 74.2359 17.9452C75.1275 18.5845 76.1528 18.9041 77.3119 18.9041C77.9984 18.9041 78.6448 18.7945 79.2511 18.5753C79.8574 18.3562 80.3477 18.0365 80.7222 17.6164C81.1056 17.1963 81.2973 16.6804 81.2973 16.0685C81.2973 15.7945 81.2527 15.5434 81.1635 15.3151C81.0744 15.0776 80.9406 14.8676 80.7623 14.6849C80.5929 14.5023 80.37 14.3379 80.0936 14.1918C79.8261 14.0365 79.5141 13.9041 79.1575 13.7945L74.1824 12.2877C73.7544 12.1598 73.2908 11.9909 72.7915 11.7808C72.3011 11.5616 71.833 11.2648 71.3872 10.8904C70.9504 10.5068 70.5893 10.0228 70.304 9.43836C70.0276 8.84475 69.8894 8.11416 69.8894 7.24658C69.8894 5.97717 70.2014 4.91324 70.8255 4.05479C71.4586 3.18721 72.3056 2.53881 73.3666 2.10959C74.4365 1.68037 75.6223 1.47032 76.924 1.47945C78.2436 1.48858 79.4205 1.72146 80.4547 2.17808C81.489 2.62557 82.3538 3.27854 83.0493 4.13699C83.7447 4.99543 84.2351 6.03196 84.5204 7.24658L81.0565 7.86301C80.9139 7.16895 80.6375 6.57991 80.2274 6.09589C79.8262 5.60274 79.3313 5.22831 78.7429 4.9726C78.1633 4.71689 77.5437 4.57991 76.8839 4.56164C76.242 4.55251 75.6446 4.65297 75.0918 4.86301C74.5479 5.06393 74.1066 5.35617 73.7678 5.73973C73.4379 6.12329 73.273 6.57078 73.273 7.08219C73.273 7.56621 73.4156 7.96347 73.7009 8.27397C73.9862 8.57534 74.3384 8.81735 74.7575 9C75.1854 9.17352 75.6178 9.31964 76.0547 9.43836L79.5052 10.4247C79.9777 10.5525 80.5082 10.726 81.0967 10.9452C81.6851 11.1644 82.2513 11.4703 82.7952 11.863C83.339 12.2557 83.7848 12.7717 84.1325 13.411C84.4892 14.0502 84.6675 14.863 84.6675 15.8493C84.6675 16.8721 84.458 17.7717 84.0389 18.5479C83.6288 19.3151 83.0715 19.9543 82.3672 20.4658C81.6628 20.9772 80.8559 21.3607 79.9465 21.6164C79.046 21.8721 78.1009 22 77.1113 22Z" fill="white"/>
<path d="M93.0991 14.1096C92.154 14.1096 91.2669 13.9269 90.4377 13.5616C89.6085 13.1963 88.8774 12.6895 88.2444 12.0411C87.6113 11.3927 87.1165 10.6438 86.7599 9.79452C86.4032 8.93607 86.2249 8.01826 86.2249 7.0411C86.2249 6.07306 86.4032 5.16438 86.7599 4.31507C87.1165 3.46575 87.6113 2.72146 88.2444 2.08219C88.8774 1.43379 89.6085 0.926941 90.4377 0.561644C91.2669 0.187215 92.154 0 93.0991 0C94.0531 0 94.9447 0.187215 95.7739 0.561644C96.603 0.926941 97.3341 1.43379 97.9672 2.08219C98.6091 2.72146 99.1084 3.46575 99.465 4.31507C99.8217 5.16438 100 6.07306 100 7.0411C100 8.01826 99.8217 8.93607 99.465 9.79452C99.1084 10.6438 98.6091 11.3927 97.9672 12.0411C97.3341 12.6895 96.603 13.1963 95.7739 13.5616C94.9447 13.9269 94.0531 14.1096 93.0991 14.1096ZM93.1258 11.9178C93.9907 11.9178 94.7797 11.6986 95.493 11.2603C96.2152 10.8128 96.7903 10.2192 97.2182 9.47945C97.6551 8.73973 97.8736 7.92694 97.8736 7.0411C97.8736 6.14612 97.6551 5.33333 97.2182 4.60274C96.7903 3.86301 96.2152 3.27397 95.493 2.83562C94.7797 2.39726 93.9907 2.17808 93.1258 2.17808C92.2432 2.17808 91.4407 2.39726 90.7185 2.83562C90.0053 3.27397 89.4347 3.86301 89.0067 4.60274C88.5876 5.33333 88.3781 6.14612 88.3781 7.0411C88.3781 7.92694 88.5876 8.73973 89.0067 9.47945C89.4347 10.2192 90.0053 10.8128 90.7185 11.2603C91.4407 11.6986 92.2432 11.9178 93.1258 11.9178ZM90.8924 10.274V3.79452H93.5805C94.2403 3.79452 94.7574 3.99087 95.1319 4.38356C95.5153 4.77626 95.7159 5.29224 95.7337 5.93151C95.7337 6.3242 95.6401 6.6895 95.4529 7.0274C95.2746 7.35616 94.9982 7.62557 94.6237 7.83562L95.8006 10.274H94.49L93.4334 8.05479H92.0559V10.274H90.8924ZM92.0559 6.94521H93.6207C93.8881 6.94521 94.1066 6.84932 94.276 6.65753C94.4543 6.46575 94.5435 6.22374 94.5435 5.93151C94.5435 5.61187 94.4632 5.3653 94.3027 5.19178C94.1423 5.01826 93.9149 4.93151 93.6207 4.93151H92.0559V6.94521Z" fill="white"/>
</svg>
