<svg width="157" height="41" viewBox="0 0 157 41" fill="none" xmlns="http://www.w3.org/2000/svg">
<g clip-path="url(#clip0_113_1788)">
<path d="M24.1266 3.51345L20.5287 2.54938L17.4966 13.8651L14.7593 3.64919L11.1613 4.61326L14.1188 15.6508L6.75224 8.28426L4.11835 10.9182L12.1986 18.9984L2.13595 16.3021L1.17188 19.9001L12.1665 22.8461C12.0407 22.3032 11.9741 21.7374 11.9741 21.1562C11.9741 17.0418 15.3094 13.7064 19.4239 13.7064C23.5383 13.7064 26.8737 17.0418 26.8737 21.1562C26.8737 21.7337 26.8079 22.2959 26.6836 22.8357L36.6757 25.513L37.6397 21.9151L26.6013 18.9573L36.6646 16.2609L35.7005 12.663L24.6626 15.6205L32.0291 8.25402L29.3952 5.62012L21.4271 13.5883L24.1266 3.51345Z" fill="#FF4405"/>
<path d="M26.673 22.8776C26.3646 24.1817 25.7133 25.3533 24.8197 26.292L32.0586 33.5309L34.6925 30.897L26.673 22.8776Z" fill="#FF4405"/>
<path d="M24.7467 26.3676C23.8423 27.2913 22.6994 27.9806 21.4178 28.3358L24.0519 38.1663L27.6498 37.2022L24.7467 26.3676Z" fill="#FF4405"/>
<path d="M21.2834 28.3718C20.6888 28.5247 20.0655 28.6059 19.4232 28.6059C18.7351 28.6059 18.0688 28.5126 17.4362 28.338L14.7997 38.1774L18.3976 39.1414L21.2834 28.3718Z" fill="#FF4405"/>
<path d="M17.309 28.3017C16.0469 27.9288 14.9244 27.2307 14.0385 26.3044L6.7818 33.5611L9.4157 36.195L17.309 28.3017Z" fill="#FF4405"/>
<path d="M13.9787 26.2403C13.108 25.3081 12.4737 24.1521 12.1718 22.8681L2.14709 25.5542L3.11116 29.1522L13.9787 26.2403Z" fill="#FF4405"/>
</g>
<path d="M59.29 11.0042V23.9696L50.9788 11.0042H47.6543V28.9052H50.9788V16.042L59.29 28.9052H62.6144V11.0042H59.29Z" fill="#101828"/>
<path d="M64.1125 14.3542H67.5392V11.0042H64.1125V14.3542ZM64.1636 28.9052V16.1187H67.4881V28.9052H64.1636Z" fill="#101828"/>
<path d="M81.7919 22.512C81.7919 18.0878 78.6465 15.9909 75.322 15.9653C71.9719 15.9397 68.8776 18.0878 68.8776 22.512C68.8776 26.9361 71.9719 29.0842 75.322 29.0586C78.3652 29.033 80.4621 27.6265 81.4339 25.2994L78.851 24.2253C78.0583 25.8109 76.8052 26.3735 75.322 26.399C74.0433 26.4246 72.5857 25.8109 72.2788 23.5349H81.7152C81.7664 23.2024 81.7919 22.87 81.7919 22.512ZM75.322 18.5993C76.6006 18.6249 77.9048 19.3153 78.314 21.1566H72.33C72.7647 19.2898 74.0689 18.5737 75.322 18.5993Z" fill="#101828"/>
<path d="M89.475 18.497V15.9653H87.378V12.5385L84.0535 13.5614V15.9653H81.9566V18.497H84.0535V25.1204C84.0535 27.6265 84.2581 28.9052 88.1452 28.9052H89.0402V25.9899H88.1452C87.5314 25.9899 87.378 25.8876 87.378 25.1204V18.497H89.475Z" fill="#101828"/>
<path d="M94.415 26.1177L101.473 18.9062V16.1187H90.8859V18.9062H97.7394L90.6813 26.1177V28.9052H101.55V26.1177H94.415Z" fill="#101828"/>
<path d="M102.742 25.2994L106.092 24.7879C106.322 26.0666 107.831 26.5525 108.751 26.5525C109.698 26.5525 111.334 26.3479 111.334 24.8135C111.334 21.8215 103.125 25.5551 103.125 19.8268C103.125 16.1443 107.396 15.9397 108.751 15.9397C110.03 15.9397 113.738 16.1443 114.505 19.1108L111.334 19.7757C111.053 18.4203 109.621 18.1646 108.854 18.1646C108.086 18.1646 106.45 18.3436 106.45 19.8268C106.45 22.7933 114.659 19.0085 114.659 24.8135C114.659 28.7262 110.158 29.0586 108.751 29.0586C107.473 29.0586 103.407 28.7262 102.742 25.2994Z" fill="#101828"/>
<path d="M118.978 22.512C118.978 25.6319 120.64 26.578 122.379 26.5525C123.939 26.5269 125.013 25.8876 125.652 24.0975L128.388 25.4273C127.391 28.0357 124.962 29.033 122.379 29.0586C119.029 29.0842 115.653 26.9361 115.653 22.512C115.653 18.0878 119.029 15.9397 122.379 15.9653C124.962 15.9909 127.391 16.9882 128.388 19.5966L125.652 20.9264C125.013 19.1363 123.939 18.497 122.379 18.4714C120.64 18.4459 118.978 19.3921 118.978 22.512Z" fill="#101828"/>
<path d="M137.313 15.9141C135.6 15.9141 134.04 16.8092 133.042 18.7272V11.0042H129.718V28.9052H133.042V24.3788C133.042 18.5226 135.472 18.0367 136.367 18.0367C137.799 18.0367 138.004 19.5199 138.004 21.6936V28.9052H141.328V21.6936C141.328 18.9829 140.893 15.9141 137.313 15.9141Z" fill="#101828"/>
<path d="M155.364 22.512C155.364 18.0878 152.218 15.9909 148.894 15.9653C145.544 15.9397 142.45 18.0878 142.45 22.512C142.45 26.9361 145.544 29.0842 148.894 29.0586C151.937 29.033 154.034 27.6265 155.006 25.2994L152.423 24.2253C151.63 25.8109 150.377 26.3735 148.894 26.399C147.615 26.4246 146.158 25.8109 145.851 23.5349H155.287C155.338 23.2024 155.364 22.87 155.364 22.512ZM148.894 18.5993C150.173 18.6249 151.477 19.3153 151.886 21.1566H145.902C146.337 19.2898 147.641 18.5737 148.894 18.5993Z" fill="#101828"/>
<defs>
<clipPath id="clip0_113_1788">
<rect width="37.5069" height="37.5069" fill="white" transform="translate(0.881836 1.70483)"/>
</clipPath>
</defs>
</svg>
