<svg width="142" height="41" viewBox="0 0 142 41" fill="none" xmlns="http://www.w3.org/2000/svg">
<circle cx="19.0435" cy="20.6713" r="17.4748" stroke="#6927DA" stroke-width="2.55729"/>
<path d="M25.9756 27.6032C22.4471 31.1317 18.4496 33.4352 14.8895 34.3506C11.2973 35.2743 8.40194 34.7426 6.68736 33.028C4.97277 31.3134 4.44104 28.418 5.36475 24.8258C6.2802 21.2658 8.58364 17.2683 12.1122 13.7397C15.6407 10.2112 19.6382 7.90773 23.1983 6.99229C26.7905 6.06858 29.6859 6.60031 31.4005 8.3149C33.1151 10.0295 33.6468 12.9249 32.7231 16.5171C31.8076 20.0772 29.5042 24.0746 25.9756 27.6032Z" stroke="#6927DA" stroke-width="2.55729"/>
<path d="M25.9746 13.7397C29.5031 17.2682 31.8066 21.2657 32.722 24.8258C33.6457 28.418 33.114 31.3134 31.3994 33.028C29.6848 34.7426 26.7894 35.2743 23.1972 34.3506C19.6372 33.4351 15.6397 31.1317 12.1111 27.6031C8.58258 24.0746 6.27913 20.0771 5.36369 16.517C4.43998 12.9248 4.97171 10.0294 6.6863 8.31485C8.40088 6.60027 11.2963 6.06853 14.8885 6.99225C18.4485 7.90769 22.446 10.2111 25.9746 13.7397Z" stroke="#6927DA" stroke-width="2.55729"/>
<path d="M53.8648 29.1872C57.8798 29.1872 60.5905 27.0902 60.5905 23.7402C60.5905 16.6565 51.1797 19.6741 51.1797 15.9404C51.1797 14.8919 52.1259 14.1759 53.6347 14.1759C55.3481 14.1759 56.4221 15.0965 56.55 16.503H60.2069C60.1046 13.1018 57.4962 10.877 53.6347 10.877C50.0033 10.877 47.446 12.974 47.446 15.9404C47.446 22.973 56.729 20.2878 56.729 23.7913C56.729 25.1467 55.5782 25.8627 53.8648 25.8627C51.9724 25.8627 50.7705 24.7119 50.6171 22.8963H46.9346C47.088 26.7066 49.7987 29.1872 53.8648 29.1872Z" fill="#101828"/>
<path d="M61.4602 34.1995H65.0148V27.8318C65.7053 28.7013 66.9584 29.1872 68.416 29.1872C72.1241 29.1872 74.6302 26.5532 74.6302 22.5382C74.6302 18.5233 72.3287 15.8893 68.7229 15.8893C67.0606 15.8893 65.782 16.503 65.0148 17.5004V16.0939H61.4602V34.1995ZM67.9813 26.1185C66.0633 26.1185 64.8102 24.6864 64.8102 22.5382C64.8102 20.3646 66.0633 18.9325 67.9813 18.9325C69.8481 18.9325 71.1267 20.3646 71.1267 22.5382C71.1267 24.6864 69.8481 26.1185 67.9813 26.1185Z" fill="#101828"/>
<path d="M75.4903 28.9826H79.0449V21.9245C79.0449 20.2623 80.1446 19.0603 81.7045 19.0603C83.1878 19.0603 84.2107 20.1855 84.2107 21.7455V28.9826H87.7653V20.9527C87.7653 17.9863 85.8729 15.8893 82.9832 15.8893C81.1931 15.8893 79.7866 16.6309 79.0449 17.884V10.4934H75.4903V28.9826Z" fill="#101828"/>
<path d="M97.7092 24.6097C97.4279 25.7093 96.4817 26.2719 95.0496 26.2719C93.2595 26.2719 92.1087 25.1467 91.853 23.331H101.11C101.136 23.0497 101.162 22.6661 101.162 22.1802C101.162 19.2393 99.3458 15.8893 94.7939 15.8893C90.4209 15.8893 88.4262 19.2393 88.4262 22.5127C88.4262 25.7604 90.6766 29.1872 95.0496 29.1872C98.2206 29.1872 100.676 27.3971 101.187 24.6097H97.7092ZM94.7939 18.4977C96.5072 18.4977 97.5046 19.6485 97.6069 21.0806H91.9041C92.211 19.2905 93.1828 18.4977 94.7939 18.4977Z" fill="#101828"/>
<path d="M110.484 19.0603V16.0939H108.65C107.09 16.0939 106.118 16.6309 105.428 18.242V16.0939H101.848V28.9826H105.428V22.7173C105.428 20.518 106.221 19.0603 107.985 19.0603H110.484Z" fill="#101828"/>
<path d="M122.759 16.0939H119.179V23.152C119.179 24.7887 118.079 26.0162 116.519 26.0162C115.062 26.0162 114.039 24.891 114.039 23.331V16.0939H110.484V24.1238C110.484 27.0647 112.376 29.1872 115.266 29.1872C117.031 29.1872 118.463 28.42 119.179 27.1925V28.9826H122.759V16.0939Z" fill="#101828"/>
<path d="M124.294 28.9826H127.848V10.4934H124.294V28.9826Z" fill="#101828"/>
<path d="M137.996 24.6097C137.715 25.7093 136.769 26.2719 135.337 26.2719C133.547 26.2719 132.396 25.1467 132.14 23.331H141.398C141.423 23.0497 141.449 22.6661 141.449 22.1802C141.449 19.2393 139.633 15.8893 135.081 15.8893C130.708 15.8893 128.714 19.2393 128.714 22.5127C128.714 25.7604 130.964 29.1872 135.337 29.1872C138.508 29.1872 140.963 27.3971 141.474 24.6097H137.996ZM135.081 18.4977C136.795 18.4977 137.792 19.6485 137.894 21.0806H132.191C132.498 19.2905 133.47 18.4977 135.081 18.4977Z" fill="#101828"/>
</svg>
