<svg width="42" height="44" viewBox="0 0 42 44" fill="none" xmlns="http://www.w3.org/2000/svg">
<path d="M20.3358 31.8585C20.3358 31.1682 19.7762 30.6085 19.0858 30.6085C18.3955 30.6085 17.8358 31.1682 17.8358 31.8585H20.3358ZM17.8358 36.258C17.8358 36.9483 18.3955 37.508 19.0858 37.508C19.7762 37.508 20.3358 36.9483 20.3358 36.258H17.8358ZM19.129 20.7244L18.2705 21.6329L19.3514 22.6545L20.1717 21.4138L19.129 20.7244ZM35.0377 14.7049C35.2177 15.3714 35.9038 15.7658 36.5703 15.5858C37.2368 15.4059 37.6312 14.7197 37.4513 14.0532L35.0377 14.7049ZM19.0833 1.25452V0.0045166C18.3929 0.0045166 17.8333 0.564161 17.8333 1.25452L19.0833 1.25452ZM17.8333 6.18503C17.8333 6.87539 18.3929 7.43503 19.0833 7.43503C19.7736 7.43503 20.3333 6.87539 20.3333 6.18503H17.8333ZM6.15505 20.2724C6.84541 20.2724 7.40505 19.7128 7.40505 19.0224C7.40505 18.3321 6.84541 17.7724 6.15505 17.7724V20.2724ZM1.31348 19.0224V17.7724C0.623121 17.7724 0.0634766 18.3321 0.0634766 19.0224H1.31348ZM23.0124 37.6326C23.6881 37.4909 24.121 36.8283 23.9793 36.1527C23.8377 35.477 23.1751 35.0441 22.4994 35.1857L23.0124 37.6326ZM41.9365 18.1498L41.9367 16.8998L39.4367 16.8993L39.4365 18.1493L41.9365 18.1498ZM40.6852 24.1626L39.4352 24.1623L39.4352 24.1636L40.6852 24.1626ZM38.7907 27.6631L38.3033 26.512L37.5407 26.835V27.6631H38.7907ZM37.5407 42.7449V43.9949H40.0407V42.7449H37.5407ZM34.7595 18.1495V16.8995H32.2595V18.1495H34.7595ZM35.4065 27.6631L36.6565 27.663L36.6565 26.8346L35.8936 26.5119L35.4065 27.6631ZM34.1578 42.745L34.1579 43.995L36.6579 43.9948L36.6578 42.7448L34.1578 42.745ZM35.8483 23.3437V24.5937H38.3483V23.3437H35.8483ZM38.3483 18.1495V16.8995H35.8483V18.1495H38.3483ZM25.1366 42.7449V43.9949H27.6366V42.7449H25.1366ZM26.3866 31.4615H27.6366V30.5562L26.7765 30.2738L26.3866 31.4615ZM24.6294 30.8846L23.3941 30.6932L23.2317 31.7414L24.2395 32.0723L24.6294 30.8846ZM26.3129 20.0205L25.0967 19.7317L25.0853 19.78L25.0777 19.8291L26.3129 20.0205ZM28.7067 17.4113L29.134 18.586L29.1497 18.5803L29.1651 18.5742L28.7067 17.4113ZM29.8369 18.978L31.0869 18.9779L31.0869 18.9673L31.0867 18.9568L29.8369 18.978ZM28.5882 42.7456L28.5882 43.9956L31.0882 43.9955L31.0882 42.7455L28.5882 42.7456ZM17.8358 31.8585V36.258H20.3358V31.8585H17.8358ZM2.83702 16.0147C4.04667 9.43341 9.16408 4.21396 15.6918 2.85303L15.1816 0.405652C7.6617 1.97343 1.772 7.97962 0.378212 15.5628L2.83702 16.0147ZM25.8636 8.27188L18.0863 20.035L20.1717 21.4138L27.949 9.65066L25.8636 8.27188ZM19.9876 19.8159L14.0101 14.1668L12.293 15.9838L18.2705 21.6329L19.9876 19.8159ZM37.4513 14.0532C35.2665 5.96157 27.8759 0.0045166 19.0833 0.0045166V2.50452C26.7181 2.50452 33.14 7.67655 35.0377 14.7049L37.4513 14.0532ZM17.8333 1.25452V6.18503H20.3333V1.25452H17.8333ZM6.15505 17.7724H1.31348V20.2724H6.15505V17.7724ZM0.0634766 19.0224C0.0634766 29.525 8.57775 38.0391 19.0827 38.0391V35.5391C9.95823 35.5391 2.56348 28.1441 2.56348 19.0224H0.0634766ZM19.0827 38.0391C20.4297 38.0391 21.7443 37.8984 23.0124 37.6326L22.4994 35.1857C21.3979 35.4167 20.2552 35.5391 19.0827 35.5391V38.0391ZM39.4365 18.1493L39.4352 24.1623L41.9352 24.1629L41.9365 18.1498L39.4365 18.1493ZM39.4352 24.1636C39.4363 25.4973 39.0014 26.2163 38.3033 26.512L39.2782 28.8141C41.3042 27.9561 41.9367 25.9751 41.9352 24.1616L39.4352 24.1636ZM37.5407 27.6631V42.7449H40.0407V27.6631H37.5407ZM32.2595 18.1495V24.1613H34.7595V18.1495H32.2595ZM32.2595 24.1613C32.2595 25.9738 32.8918 27.9563 34.9195 28.8143L35.8936 26.5119C35.1946 26.2161 34.7595 25.4961 34.7595 24.1613H32.2595ZM34.1565 27.6632L34.1578 42.745L36.6578 42.7448L36.6565 27.663L34.1565 27.6632ZM38.3483 23.3437V18.1495H35.8483V23.3437H38.3483ZM27.6366 42.7449V31.4615H25.1366V42.7449H27.6366ZM26.7765 30.2738L25.0193 29.697L24.2395 32.0723L25.9968 32.6491L26.7765 30.2738ZM25.8647 31.076L27.5482 20.2119L25.0777 19.8291L23.3941 30.6932L25.8647 31.076ZM27.5291 20.3092C27.6664 19.731 28.0361 19.3031 28.4385 18.9953C28.6363 18.8441 28.8251 18.7355 28.9618 18.6662C29.0293 18.6319 29.0817 18.6084 29.1129 18.5951C29.1285 18.5885 29.1385 18.5845 29.1424 18.583C29.1443 18.5822 29.1446 18.5821 29.1433 18.5826C29.1426 18.5829 29.1415 18.5833 29.1399 18.5838C29.1392 18.5841 29.1383 18.5844 29.1373 18.5848C29.1368 18.585 29.1363 18.5852 29.1358 18.5854C29.1355 18.5855 29.135 18.5856 29.1349 18.5857C29.1345 18.5859 29.134 18.586 28.7067 17.4113C28.2794 16.2366 28.279 16.2368 28.2785 16.237C28.2783 16.237 28.2778 16.2372 28.2775 16.2373C28.2768 16.2376 28.2762 16.2378 28.2754 16.2381C28.274 16.2386 28.2724 16.2392 28.2707 16.2398C28.2673 16.2411 28.2634 16.2425 28.259 16.2442C28.2503 16.2475 28.2397 16.2516 28.2272 16.2565C28.2024 16.2662 28.1703 16.2793 28.1319 16.2957C28.0551 16.3284 27.9523 16.375 27.8306 16.4367C27.589 16.5593 27.2642 16.7462 26.9199 17.0094C26.2384 17.5306 25.4112 18.4072 25.0967 19.7317L27.5291 20.3092ZM29.1651 18.5742C29.1439 18.5826 29.0862 18.6015 28.999 18.6032C28.9085 18.605 28.8107 18.5876 28.7178 18.5483C28.6276 18.5102 28.5649 18.4614 28.5272 18.425C28.5087 18.4071 28.4962 18.3921 28.4886 18.3823C28.4811 18.3725 28.4777 18.3668 28.4775 18.3666C28.4774 18.3663 28.4797 18.3703 28.4839 18.3793C28.4881 18.3883 28.4936 18.4013 28.4999 18.4186C28.5128 18.4537 28.5269 18.5013 28.5401 18.5616C28.5669 18.6841 28.5843 18.8348 28.5871 18.9991L31.0867 18.9568C31.0771 18.3868 30.971 17.6705 30.6283 17.0922C30.4491 16.7897 30.1538 16.4409 29.6903 16.2452C29.1979 16.0373 28.6888 16.0748 28.2483 16.2484L29.1651 18.5742ZM28.5869 18.978L28.5882 42.7456L31.0882 42.7455L31.0869 18.9779L28.5869 18.978Z" fill="#9880FF"/>
</svg>
