<svg width="46" height="42" viewBox="0 0 46 42" fill="none" xmlns="http://www.w3.org/2000/svg">
<path d="M21.75 4.51277C21.7504 5.20312 22.3103 5.76251 23.0006 5.76219C23.691 5.76186 24.2504 5.20196 24.25 4.5116L21.75 4.51277ZM24.2488 1.7792C24.2484 1.08885 23.6885 0.529464 22.9982 0.529785C22.3078 0.530106 21.7484 1.09001 21.7488 1.78037L24.2488 1.7792ZM25.6182 4.82483C25.2464 5.40647 25.4164 6.17944 25.9981 6.55131C26.5797 6.92318 27.3527 6.75313 27.7245 6.17149L25.6182 4.82483ZM29.1965 3.86919C29.5684 3.28755 29.3983 2.51458 28.8167 2.14271C28.2351 1.77084 27.4621 1.94089 27.0902 2.52252L29.1965 3.86919ZM18.2755 6.17149C18.6474 6.75313 19.4204 6.92318 20.002 6.55131C20.5836 6.17944 20.7537 5.40647 20.3818 4.82483L18.2755 6.17149ZM18.9098 2.52253C18.538 1.94089 17.765 1.77084 17.1834 2.14271C16.6017 2.51458 16.4317 3.28755 16.8035 3.86919L18.9098 2.52253ZM2.51824 35.948C1.86366 35.7287 1.1552 36.0815 0.935862 36.7361C0.716524 37.3907 1.06936 38.0992 1.72395 38.3185L2.51824 35.948ZM10.9363 41.4054C11.5909 41.6247 12.2994 41.2719 12.5187 40.6173C12.7381 39.9627 12.3852 39.2543 11.7306 39.0349L10.9363 41.4054ZM17.621 27.3777L18.8342 27.6788C18.8389 27.6596 18.8433 27.6403 18.8471 27.6209L17.621 27.3777ZM21.077 9.95793L22.3031 10.2012C22.4255 9.58431 22.0705 8.97257 21.4742 8.77272L21.077 9.95793ZM12.5812 7.11054L12.9784 5.92533C12.3821 5.72548 11.7302 5.99977 11.4561 6.5658L12.5812 7.11054ZM4.84206 23.0945L3.717 22.5498C3.70837 22.5676 3.70018 22.5856 3.69241 22.6038L4.84206 23.0945ZM8.72434 32.7072L8.32711 33.8924C8.34495 33.8984 8.36292 33.9039 8.38101 33.9091L8.72434 32.7072ZM8.72879 32.7084L9.12595 31.5232C9.10814 31.5172 9.09019 31.5117 9.07212 31.5065L8.72879 32.7084ZM44.2755 38.3185C44.9301 38.0992 45.2829 37.3907 45.0636 36.7361C44.8443 36.0815 44.1358 35.7287 43.4812 35.948L44.2755 38.3185ZM34.2682 39.0349C33.6136 39.2542 33.2607 39.9627 33.4801 40.6173C33.6994 41.2719 34.4078 41.6247 35.0624 41.4054L34.2682 39.0349ZM28.3784 27.3777L27.1523 27.6209C27.1562 27.6403 27.1605 27.6595 27.1652 27.6787L28.3784 27.3777ZM24.9224 9.95793L24.5252 8.77272C23.9289 8.97257 23.5739 9.58431 23.6963 10.2012L24.9224 9.95793ZM33.4182 7.11054L34.5433 6.5658C34.2692 5.99977 33.6173 5.72548 33.021 5.92533L33.4182 7.11054ZM41.1574 23.0945L42.307 22.6038C42.2993 22.5856 42.2911 22.5676 42.2824 22.5498L41.1574 23.0945ZM37.2751 32.7072L37.578 33.9199C37.6098 33.912 37.6413 33.9028 37.6723 33.8924L37.2751 32.7072ZM37.27 32.7084L36.9671 31.4957C36.9353 31.5037 36.9038 31.5128 36.8728 31.5232L37.27 32.7084ZM24.25 4.5116L24.2488 1.7792L21.7488 1.78037L21.75 4.51277L24.25 4.5116ZM27.7245 6.17149L29.1965 3.86919L27.0902 2.52252L25.6182 4.82483L27.7245 6.17149ZM20.3818 4.82483L18.9098 2.52253L16.8035 3.86919L18.2755 6.17149L20.3818 4.82483ZM7.48446 32.4835L5.5646 38.2139L7.93509 39.0081L9.85495 33.2777L7.48446 32.4835ZM1.72395 38.3185L10.9363 41.4054L11.7306 39.0349L2.51824 35.948L1.72395 38.3185ZM18.8471 27.6209L22.3031 10.2012L19.8509 9.71467L16.3949 27.1344L18.8471 27.6209ZM21.4742 8.77272L12.9784 5.92533L12.184 8.29574L20.6798 11.1431L21.4742 8.77272ZM11.4561 6.5658L3.717 22.5498L5.96712 23.6393L13.7063 7.65527L11.4561 6.5658ZM3.69241 22.6038C2.582 25.2052 2.62477 27.6772 3.55718 29.708C4.48256 31.7234 6.23273 33.1904 8.32711 33.8924L9.12157 31.522C7.62018 31.0188 6.44038 29.9961 5.82914 28.6648C5.22493 27.3488 5.12445 25.617 5.99171 23.5853L3.69241 22.6038ZM8.38101 33.9091L8.38545 33.9104L9.07212 31.5065L9.06767 31.5052L8.38101 33.9091ZM8.33162 33.8937C10.4271 34.5959 12.7082 34.48 14.6614 33.4293C16.6294 32.3706 18.1529 30.4237 18.8342 27.6788L16.4078 27.0766C15.8757 29.2203 14.7522 30.5417 13.477 31.2276C12.1871 31.9216 10.6288 32.0268 9.12595 31.5232L8.33162 33.8937ZM19.9462 14.2134H11.6079V16.7134H19.9462V14.2134ZM28.9572 16.7134H37.2954V14.2134H28.9572V16.7134ZM36.1439 33.2778L38.0644 39.0082L40.4348 38.2137L38.5143 32.4834L36.1439 33.2778ZM43.4812 35.948L34.2682 39.0349L35.0624 41.4054L44.2755 38.3185L43.4812 35.948ZM29.6045 27.1344L26.1485 9.71467L23.6963 10.2012L27.1523 27.6209L29.6045 27.1344ZM25.3197 11.1431L33.8154 8.29574L33.021 5.92533L24.5252 8.77272L25.3197 11.1431ZM32.2932 7.65527L40.0323 23.6393L42.2824 22.5498L34.5433 6.5658L32.2932 7.65527ZM40.0077 23.5853C40.875 25.617 40.7745 27.3488 40.1703 28.6648C39.5591 29.9961 38.3792 31.0188 36.8779 31.522L37.6723 33.8924C39.7667 33.1904 41.5169 31.7234 42.4423 29.708C43.3747 27.6772 43.4174 25.2052 42.307 22.6038L40.0077 23.5853ZM36.9721 31.4944L36.9671 31.4957L37.573 33.9212L37.578 33.9199L36.9721 31.4944ZM36.8728 31.5232C35.3703 32.0268 33.8121 31.9216 32.5221 31.2276C31.2469 30.5417 30.1235 29.2204 29.5917 27.0767L27.1652 27.6787C27.8462 30.4236 29.3697 32.3706 31.3377 33.4293C33.2909 34.48 35.572 34.5959 37.6672 33.8936L36.8728 31.5232Z" fill="#9880FF"/>
</svg>
